<?xml version="1.0" encoding="UTF-8"?><svg id="Layer_1" xmlns="http://www.w3.org/2000/svg" viewBox="0 0 72 72"><path class="cls-1" d="M41.9,19.79,53.96,29.4c.16,2.2-.19,4.49-1.05,6.88-1.5,4.1-4.13,7.71-7.88,10.82l-1.01-1.21c3.57-2.92,6.05-6.3,7.44-10.13.8-2.2,1.13-4.28.97-6.23-.13-1.88-.7-3.51-1.69-4.91-1.8-2.57-4.6-3.91-8.41-4.02l-.56,1.77c1.74.19,3.27.71,4.58,1.57,1.66,1.13,2.82,2.65,3.46,4.58l-2.9.97c-.43-1.26-1.17-2.25-2.23-2.98-1.06-.72-2.37-1.11-3.92-1.17l-2.82,8.57c.16.16.29.34.4.52.24.51.24,1.06,0,1.65-.21.62-.62,1.14-1.21,1.57-.59.43-1.19.64-1.81.64-.16,0-.32-.03-.48-.08l-8.61,6.11c.54.56,1.18,1.02,1.93,1.37.75.35,1.61.56,2.57.64l-.24,3.02c-3.35-.27-5.83-1.65-7.44-4.14-.86-1.34-1.33-2.87-1.43-4.58-.09-1.72.18-3.49.82-5.31.72-1.98,1.84-3.86,3.34-5.63l2.33,1.97c-1.26,1.5-2.19,3.07-2.77,4.71-.94,2.55-.95,4.75-.04,6.6l8.08-6.47c0-.29.05-.59.16-.88.32-.91.95-1.57,1.89-1.97l3.26-8.2c-3.3.48-6.34,2.04-9.13,4.67l-2.09-2.21c1.82-1.72,3.83-3.07,6.03-4.06,2.17-.97,4.33-1.47,6.47-1.53l.64-1.65c-2.9.21-5.8,1.14-8.73,2.77l-.76-1.33c3.62-2.04,7.2-3.06,10.74-3.06,2.2,0,4.17.41,5.91,1.23,1.74.82,3.15,1.99,4.22,3.52,1.13,1.61,1.77,3.49,1.93,5.63h0ZM36.95,35.6c.08-.21.08-.39,0-.52-.03-.05-.08-.09-.16-.12-.05-.03-.12-.04-.2-.04-.11,0-.21.01-.32.04-.64.19-1.07.56-1.29,1.13-.08.24-.08.43,0,.56.05.08.17.12.36.12.32,0,.64-.12.95-.36s.53-.51.66-.8ZM30.11,51.44c3.94,0,7.87-1.31,11.78-3.94l.84,1.29c-4.18,2.79-8.39,4.18-12.63,4.18-2.2,0-4.17-.41-5.91-1.23-1.74-.82-3.15-1.98-4.22-3.48-1.13-1.64-1.77-3.53-1.93-5.67-.19-2.17.16-4.45,1.05-6.84.86-2.39,2.16-4.65,3.9-6.8,1.66-2.06,3.61-3.87,5.83-5.43l.88,1.25c-2.12,1.47-3.97,3.19-5.55,5.15-1.61,2.01-2.83,4.13-3.66,6.35-.78,2.17-1.09,4.24-.92,6.19.13,1.88.68,3.51,1.65,4.91.94,1.31,2.16,2.32,3.68,3.02,1.51.7,3.25,1.05,5.21,1.05h0ZM49.46,36.36c-1.26,3.43-3.5,6.38-6.72,8.85-3.19,2.49-6.54,3.87-10.05,4.14l-.24-3.02c2.92-.24,5.75-1.42,8.49-3.54,2.73-2.12,4.61-4.61,5.63-7.48.59-1.58.8-3.07.64-4.46l3.02-.32c.21,1.85-.04,3.79-.76,5.83h0Z"/></svg>