<?xml version="1.0" encoding="UTF-8"?><svg id="Layer_1" xmlns="http://www.w3.org/2000/svg" viewBox="0 0 72 72"><path class="cls-1" d="M38.72,25.42l-2.24,5.64,1.81,1.81,2.47-7.53c1.56.05,2.86.44,3.92,1.17,1.06.72,1.8,1.72,2.23,2.98l2.9-.97c-.64-1.93-1.8-3.46-3.46-4.58-1.31-.86-2.84-1.38-4.58-1.57l.56-1.77c3.81.11,6.61,1.45,8.41,4.02.99,1.39,1.55,3.03,1.69,4.91.16,1.96-.16,4.03-.97,6.23-.85,2.34-2.11,4.51-3.78,6.51l1.1,1.1c1.81-2.17,3.18-4.54,4.12-7.09.86-2.39,1.21-4.68,1.05-6.88h0c-.16-2.14-.8-4.02-1.93-5.63-1.07-1.53-2.48-2.7-4.22-3.52-1.74-.82-3.71-1.23-5.91-1.23-3.54,0-7.12,1.02-10.74,3.06l.76,1.33c2.92-1.64,5.83-2.56,8.73-2.77l-.64,1.65c-2.14.05-4.3.56-6.47,1.53-.96.43-1.88.95-2.77,1.52l2.19,2.19c1.83-1.1,3.75-1.8,5.77-2.1Z"/><path class="cls-1" d="M32.45,46.34l.24,3.02c3.39-.26,6.62-1.56,9.71-3.89l-2.16-2.16c-2.52,1.8-5.12,2.81-7.79,3.03Z"/><path class="cls-1" d="M33.41,36.48l-8.08,6.47c-.91-1.85-.9-4.05.04-6.6.59-1.64,1.51-3.2,2.77-4.71l-2.33-1.97c-1.5,1.77-2.61,3.65-3.34,5.63-.64,1.82-.92,3.59-.82,5.31.09,1.72.57,3.24,1.43,4.58,1.61,2.49,4.09,3.87,7.44,4.14l.24-3.02c-.97-.08-1.82-.29-2.57-.64-.75-.35-1.39-.8-1.93-1.37l8.61-6.11c.12.04.23.05.35.06l-1.8-1.8s0,0,0,0Z"/><path class="cls-1" d="M23,28.96c-1.74,2.14-3.04,4.41-3.9,6.8-.88,2.39-1.23,4.67-1.05,6.84.16,2.14.8,4.04,1.93,5.67,1.07,1.5,2.48,2.66,4.22,3.48,1.74.82,3.71,1.23,5.91,1.23,4.24,0,8.45-1.39,12.63-4.18l-.84-1.29c-3.91,2.63-7.84,3.94-11.78,3.94-1.96,0-3.69-.35-5.21-1.05-1.51-.7-2.74-1.7-3.68-3.02-.97-1.39-1.51-3.03-1.65-4.91-.16-1.96.15-4.02.92-6.19.83-2.23,2.05-4.34,3.66-6.35.4-.5.82-.98,1.26-1.44l-1.07-1.07c-.47.5-.92,1.02-1.35,1.55Z"/><path class="cls-1" d="M50.22,30.53l-3.02.32c.16,1.39-.05,2.88-.64,4.46-.48,1.35-1.16,2.62-2.02,3.8l2.17,2.17c1.17-1.52,2.09-3.16,2.74-4.93.72-2.04.98-3.98.76-5.83Z"/><rect class="cls-1" x="35.56" y="15" width="1" height="39.76" transform="translate(-14.1 35.72) rotate(-45)"/></svg>