<svg xmlns="http://www.w3.org/2000/svg" viewBox="0 0 512 512">
  <path d="M99.5557 99.5557h312.889v312.889h-312.889v-312.889zM71.1113 440.889h369.777v-369.777h-369.777v369.777zM142.223 170.667c0 15.709 12.7344 28.4443 28.4443 28.4443c15.709 0 28.4443 -12.7354 28.4443 -28.4443c0 -15.71 -12.7354 -28.4443 -28.4443 -28.4443
c-15.71 0 -28.4443 12.7344 -28.4443 28.4443zM312.889 170.667c0 15.709 12.7354 28.4443 28.4443 28.4443c15.71 0 28.4443 -12.7354 28.4443 -28.4443c0 -15.71 -12.7344 -28.4443 -28.4443 -28.4443c-15.709 0 -28.4443 12.7344 -28.4443 28.4443zM312.889 341.333
c0 15.71 12.7354 28.4443 28.4443 28.4443c15.71 0 28.4443 -12.7344 28.4443 -28.4443c0 -15.709 -12.7344 -28.4443 -28.4443 -28.4443c-15.709 0 -28.4443 12.7354 -28.4443 28.4443zM142.223 256c0 15.709 12.7344 28.4443 28.4443 28.4443
c15.709 0 28.4443 -12.7354 28.4443 -28.4443s-12.7354 -28.4443 -28.4443 -28.4443c-15.71 0 -28.4443 12.7354 -28.4443 28.4443zM312.889 256c0 15.709 12.7354 28.4443 28.4443 28.4443c15.71 0 28.4443 -12.7354 28.4443 -28.4443s-12.7344 -28.4443 -28.4443 -28.4443
c-15.709 0 -28.4443 12.7354 -28.4443 28.4443zM142.223 341.333c0 15.71 12.7344 28.4443 28.4443 28.4443c15.709 0 28.4443 -12.7344 28.4443 -28.4443c0 -15.709 -12.7354 -28.4443 -28.4443 -28.4443c-15.71 0 -28.4443 12.7354 -28.4443 28.4443z"/>
</svg>