<svg xmlns="http://www.w3.org/2000/svg" viewBox="0 0 512 512">
  <path d="M263.111 382.123l116.565 -36.168l-116.565 67.2998v-31.1318zM248.889 413.255l-116.565 -67.2998l116.565 36.168v31.1318zM68.3809 74.9512l110.009 -63.5166l-86.6279 79.1045zM60.8428 87.0117l23.6943 15.8008l-23.6943 118.514v-134.314zM451.157 87.0117v134.314
l-23.6943 -118.514l23.6943 -15.7871v-0.0136719zM443.619 74.9512l-23.3809 15.5879l-86.6279 -79.1045zM240.754 364.715l-182.756 -56.7188l38.5996 -192.967zM271.246 364.715l144.156 -249.686l38.5713 192.967l-182.756 56.7188h0.0283203zM401.209 92.4443h-290.432
l145.223 -132.594zM263.111 446.094l209.379 -120.889c3.92578 -2.26562 7.11133 -7.78418 7.11133 -12.3164v-241.777c0 -4.53223 -3.18555 -10.0508 -7.11133 -12.3164l-209.379 -120.889c-1.82227 -1.05273 -5.00781 -1.90625 -7.11133 -1.90625
s-5.28906 0.853516 -7.11133 1.90625l-209.379 120.889c-3.92578 2.26562 -7.11133 7.78418 -7.11133 12.3164v241.777c0 4.53223 3.18555 10.0508 7.11133 12.3164l209.379 120.889c1.82227 1.05273 5.00781 1.90625 7.11133 1.90625s5.28906 -0.853516 7.11133 -1.90625z
M108.203 106.667h295.594l-147.797 256zM252.203 142.648v-21.7598h-82.0771c0.881836 8.2207 3.55566 16.0146 7.99316 23.3818c4.45117 7.35254 13.2266 17.123 26.3398 29.2979c10.5527 9.8125 17.0234 16.4971 19.4131 19.9814
c3.22852 4.83594 4.83594 9.61426 4.83594 14.3359c0 5.21973 -1.4082 9.24512 -4.20996 12.0469s-6.68457 4.20996 -11.6201 4.20996c-4.89258 0 -8.77441 -1.47949 -11.6621 -4.40918c-2.90137 -2.95801 -4.55078 -7.85059 -5.00586 -14.6777l-23.3242 2.33301
c1.37891 12.8848 5.74512 22.1436 13.084 27.7471c7.32422 5.61816 16.498 8.41992 27.4912 8.41992c12.0469 0 21.5186 -3.25684 28.416 -9.75684c6.88379 -6.49902 10.3262 -14.5771 10.3262 -24.249c0 -5.48926 -0.981445 -10.7373 -2.95898 -15.7012
c-1.95996 -4.68945 -6.15918 -11.6914 -9.37207 -15.6299c-2.83008 -3.6123 -7.93652 -8.80371 -15.332 -15.5732c-7.39551 -6.78418 -12.0742 -11.2783 -14.0371 -13.5117c-1.50293 -1.66016 -3.65039 -4.57227 -4.79297 -6.49902h46.5068zM298.041 243.556
c11.833 0 21.0771 -4.22363 27.7471 -12.6582c7.9502 -10.0117 11.9189 -26.5957 11.9189 -49.7637c0 -23.1104 -3.99707 -39.7227 -12.0039 -49.834c-6.59961 -8.33398 -15.8291 -12.4873 -27.6621 -12.4873c-11.8896 0 -21.4756 4.55078 -28.7432 13.6963
c-7.28223 9.14453 -10.9229 25.4287 -10.9229 48.8818c0 22.9971 3.99609 39.5518 12.0039 49.6641c6.61328 8.33398 15.8291 12.501 27.6621 12.501zM298.041 224.143c-2.84473 0 -5.3623 -0.910156 -7.58105 -2.70215
c-2.21777 -1.82129 -3.93945 -5.0498 -5.16211 -9.71387c-1.62109 -6.05859 -2.41797 -16.2559 -2.41797 -30.5781c0 -14.3359 0.710938 -24.1777 2.16211 -29.5537c1.4502 -5.3623 3.27051 -8.93164 5.46094 -10.709c1.78125 -1.46875 5.10059 -2.66113 7.40918 -2.66113
c0.0361328 0 0.09375 0.000976562 0.128906 0.000976562h0.114258c2.33105 0 5.67578 1.21094 7.46582 2.70215c2.2334 1.80664 3.9541 5.04883 5.17676 9.71387c1.60742 6.00195 2.41797 16.1709 2.41797 30.4922c0 14.3369 -0.725586 24.1777 -2.17578 29.54
c-1.43652 5.36133 -3.27148 8.95996 -5.46094 10.752c-1.77637 1.49219 -5.10059 2.70312 -7.41992 2.70312c-0.0322266 0 -0.0859375 -0.000976562 -0.118164 -0.000976562v0.0146484z"/>
</svg>