<svg xmlns="http://www.w3.org/2000/svg" viewBox="0 0 512 512">
  <path d="M101.177 235.904l-60.8994 16.6113v-130.603l76.9424 -105.898l39.082 50.2471zM107.079 249.031l141.81 103.04v64.4404l-126.208 -41.002l-79.2744 -109.128zM263.111 352.071l141.81 -103.04l63.6729 17.3652l-79.2744 109.113l-126.208 41.002v-64.4404z
M410.823 235.904l-55.125 -169.643l39.082 -50.2471l76.9424 105.898v130.603zM343.851 58.3252h-175.701l-40.1064 -51.5693l127.957 -41.6006l127.957 41.5859l-40.1064 51.5703v0.0136719zM251.605 -63.3027l-142.108 46.1787
c-2.42578 0.788086 -5.61133 3.10059 -7.11133 5.16309l-87.8359 120.889c-1.5 2.06445 -2.7168 5.80957 -2.7168 8.36035v0.00292969v149.418v0.00292969c0 2.55078 1.2168 6.2959 2.7168 8.36035l87.8359 120.889c1.5 2.0625 4.68555 4.375 7.11133 5.16309
l142.094 46.1787c1.18262 0.384766 3.15137 0.696289 4.39453 0.696289c1.24414 0 3.21289 -0.311523 4.39551 -0.696289l142.108 -46.1787c2.4248 -0.788086 5.61133 -3.10059 7.11035 -5.16309l87.8369 -120.889c1.49902 -2.06445 2.7168 -5.80957 2.7168 -8.36035
v-0.00292969v-149.418v-0.00292969c0 -2.55078 -1.21777 -6.2959 -2.7168 -8.36035l-87.8369 -120.889c-1.49902 -2.0625 -4.68555 -4.375 -7.11035 -5.16309l-142.108 -46.1787c-1.18262 -0.384766 -3.15137 -0.696289 -4.39551 -0.696289
c-1.24316 0 -3.21191 0.311523 -4.39453 0.696289h0.0146484zM115.569 237.639l53.6465 -165.105h173.568l53.6465 165.077l-140.431 102.045l-140.431 -102.03v0.0136719zM214.955 153.315l22.6699 2.74512c0.710938 -5.78809 2.67383 -10.1973 5.83105 -13.2549
c3.17188 -3.05859 6.99707 -4.58008 11.5059 -4.58008c4.83496 0 8.90332 1.83496 12.2021 5.49023c3.31445 3.66895 4.96387 8.61816 4.96387 14.834c0 5.90137 -1.59277 10.5664 -4.75 14.0088c-2.49805 2.85059 -7.60156 5.16406 -11.3916 5.16406
c-0.0556641 0 -0.144531 -0.000976562 -0.199219 -0.00195312c-2.9873 0 -6.58496 -0.568359 -10.7529 -1.74902l2.58887 19.0859c6.3291 -0.170898 11.1641 1.20898 14.5068 4.125c3.32812 2.91504 4.99219 6.7832 4.99219 11.6191
c0 4.12402 -1.22363 7.39551 -3.66992 9.8418c-2.43164 2.44629 -5.68848 3.65527 -9.74219 3.65527c-0.0664062 0.000976562 -0.174805 0.00195312 -0.241211 0.00195312c-3.23633 0 -7.71582 -1.86133 -9.99805 -4.15527
c-2.84473 -2.78711 -4.56543 -6.84082 -5.17773 -12.1738l-21.5889 3.66895c1.50781 7.39551 3.76855 13.2842 6.79785 17.707c3.0293 4.40918 7.25391 7.89355 12.6582 10.4102c4.62305 2.09961 12.4951 3.80273 17.5723 3.80273
c0.174805 0 0.458008 -0.00195312 0.631836 -0.00488281c11.5205 0 20.7363 -3.66992 27.6768 -10.9941c5.7168 -6.00195 8.58984 -12.7852 8.58984 -20.3379c0 -10.7236 -5.87305 -19.2852 -17.5928 -25.6709c5.65234 -1.08496 13.1709 -5.60254 16.7822 -10.083
c4.20996 -5.21973 6.30078 -11.5205 6.30078 -18.916c0 -10.7236 -3.91113 -19.8545 -11.748 -27.4199c-7.82227 -7.53809 -17.5781 -11.3213 -29.2549 -11.3213c-11.0508 0 -20.21 3.17188 -27.4912 9.5293c-7.28223 6.37109 -11.5059 14.6914 -12.6582 24.96z"/>
</svg>