<svg xmlns="http://www.w3.org/2000/svg" viewBox="0 0 512 512">
  <path d="M42.667 362.88c0 23.4238 19.1572 42.4531 42.4531 42.4531h341.76c23.4238 0 42.4531 -19.1572 42.4531 -42.4531v-341.76c0 -23.4453 -19.1572 -42.4531 -42.4531 -42.4531h-341.76c-23.376 0.0585938 -42.3945 19.0771 -42.4531 42.4531v341.76zM149.333 42.667
c23.5527 0 42.667 19.1143 42.667 42.666c0 23.5527 -19.1143 42.667 -42.667 42.667c-23.5518 0 -42.666 -19.1143 -42.666 -42.667c0 -23.5518 19.1143 -42.666 42.666 -42.666zM362.667 42.667c23.5518 0 42.666 19.1143 42.666 42.666
c0 23.5527 -19.1143 42.667 -42.666 42.667c-23.5527 0 -42.667 -19.1143 -42.667 -42.667c0 -23.5518 19.1143 -42.666 42.667 -42.666zM149.333 149.333c23.5527 0 42.667 19.1152 42.667 42.667s-19.1143 42.667 -42.667 42.667
c-23.5518 0 -42.666 -19.1152 -42.666 -42.667s19.1143 -42.667 42.666 -42.667zM362.667 149.333c23.5518 0 42.666 19.1152 42.666 42.667s-19.1143 42.667 -42.666 42.667c-23.5527 0 -42.667 -19.1152 -42.667 -42.667s19.1143 -42.667 42.667 -42.667zM362.667 256
c23.5518 0 42.666 19.1143 42.666 42.667c0 23.5518 -19.1143 42.666 -42.666 42.666c-23.5527 0 -42.667 -19.1143 -42.667 -42.666c0 -23.5527 19.1143 -42.667 42.667 -42.667zM149.333 256c23.5527 0 42.667 19.1143 42.667 42.667
c0 23.5518 -19.1143 42.666 -42.667 42.666c-23.5518 0 -42.666 -19.1143 -42.666 -42.666c0 -23.5527 19.1143 -42.667 42.666 -42.667z"/>
</svg>