<svg xmlns="http://www.w3.org/2000/svg" viewBox="0 0 512 512">
  <path d="M236.999 385.849l-165.888 -95.7725v-190.222zM289.223 385.849l165.889 -286.009v190.251zM430.279 54.0449h-334.336l167.168 -96.5127zM263.111 433.777l220.444 -127.274v-254.549l-220.444 -127.275l-220.444 127.289v254.521zM456.988 68.2666l-193.877 334.265
l-193.878 -334.265h387.755zM216.121 152.306l23.3242 2.41797c0.682617 -5.27637 2.64551 -9.45801 5.93066 -12.5439c2.58789 -2.5498 7.63672 -4.61914 11.2695 -4.61914c4.22949 0 9.82129 2.66797 12.4814 5.95605c3.38477 3.98242 5.07715 9.95508 5.07715 17.9629
c0 7.49512 -1.67773 13.1123 -5.03418 16.8672c-3.37109 3.75488 -7.7373 5.63184 -13.127 5.63184c-6.72754 0 -12.7578 -2.98633 -18.0908 -8.91699l-18.9863 2.74512l11.9893 63.5732h61.9229v-21.9023h-44.1738l-3.66992 -20.7646
c4.15723 2.13965 11.3252 3.89844 16 3.92578c10.3965 0 19.2002 -3.7832 26.4258 -11.3359c7.22461 -7.55176 10.8369 -17.3506 10.8369 -29.4111c0 -10.0547 -2.91602 -19.0293 -8.76074 -26.9229c-7.93652 -10.7803 -18.9727 -16.1562 -33.0811 -16.1562
c-11.2783 0 -20.4795 3.01465 -27.5908 9.07324c-7.11133 6.05957 -11.3496 14.1943 -12.7432 24.4199z"/>
</svg>